<svg width="22" height="38" viewBox="0 0 22 38" fill="none" xmlns="http://www.w3.org/2000/svg">
<path d="M20.7984 36.1639C21.0987 35.8622 21.3366 35.5043 21.4984 35.1106C21.6602 34.7169 21.7428 34.2952 21.7414 33.8695C21.74 33.4439 21.6547 33.0227 21.4903 32.6301C21.3259 32.2374 21.0857 31.8811 20.7835 31.5814L8.13248 19.0125L20.7013 6.36151C21.307 5.75186 21.6457 4.92657 21.6429 4.06718C21.6401 3.2078 21.2961 2.38473 20.6864 1.77903C20.0768 1.17334 19.2515 0.834638 18.3921 0.837437C17.5327 0.840236 16.7096 1.1843 16.1039 1.79396L1.23511 16.76C0.934799 17.0616 0.696933 17.4195 0.535124 17.8132C0.373318 18.2069 0.290745 18.6287 0.292131 19.0543C0.293517 19.4799 0.378836 19.9011 0.543203 20.2938C0.707573 20.6864 0.947766 21.0428 1.25003 21.3424L16.216 36.2113C17.4551 37.4422 19.535 37.4355 20.7984 36.1639Z" fill="white"/>
</svg>
